<?xml version="1.0" encoding="utf-8"?>
<!-- Generator: Adobe Illustrator 26.0.1, SVG Export Plug-In . SVG Version: 6.00 Build 0)  -->
<svg version="1.1" id="Layer_1" xmlns="http://www.w3.org/2000/svg" xmlns:xlink="http://www.w3.org/1999/xlink" x="0px" y="0px"
	 viewBox="0 0 32 32" style="enable-background:new 0 0 32 32;" xml:space="preserve">
<style type="text/css">
	.st0{fill:#6200EE;}
	.st1{fill:#FFFFFF;}
</style>
<g>
	<circle class="st0" cx="16" cy="16" r="14.3"/>
	<g>
		<path class="st1" d="M18.34,21.65c-0.76,0.48-1.41,0.9-2.08,1.28c-0.14,0.08-0.42,0.06-0.56-0.03c-3.22-1.98-6.43-3.98-9.63-5.99
			c-0.17-0.11-0.34-0.39-0.34-0.59C5.71,12.32,5.71,8.3,5.71,4.29c0-0.08,0.03-0.15,0.06-0.3c1.25,0.78,2.46,1.53,3.66,2.28
			c2,1.24,4,2.48,5.98,3.75c0.4,0.26,0.67,0.26,1.06,0.01c3.07-1.91,6.14-3.81,9.22-5.7c0.16-0.1,0.32-0.19,0.57-0.34
			c0,5.23,0,10.39,0,15.65c-0.81-0.5-1.6-0.96-2.35-1.47c-0.13-0.09-0.17-0.4-0.17-0.61c-0.01-2.75-0.01-5.51-0.01-8.26
			c0-0.23,0-0.45,0-0.84c-1.82,1.13-3.53,2.2-5.34,3.32c1.18,0.74,2.25,1.43,3.34,2.09c0.33,0.2,0.47,0.41,0.45,0.79
			c-0.03,0.75-0.01,1.51-0.01,2.44c-4.65-2.89-9.19-5.72-13.81-8.59C8.34,8.74,8.31,8.89,8.31,9.04c0,1.93,0.01,3.87-0.01,5.8
			c0,0.39,0.13,0.6,0.45,0.8c2.93,1.81,5.85,3.64,8.77,5.47C17.77,21.27,18.01,21.43,18.34,21.65z"/>
		<path class="st1" d="M5.71,18.74c1.74,1.08,3.36,2.09,4.98,3.1c1.62,1.01,3.24,2.03,4.87,3.02c0.2,0.12,0.59,0.18,0.77,0.07
			c1.68-1,3.32-2.05,4.98-3.09c0.05-0.03,0.08-0.09,0.16-0.18c-0.6-0.38-1.18-0.75-1.76-1.11c-3.1-1.93-6.2-3.87-9.32-5.78
			c-0.42-0.26-0.58-0.53-0.55-1.01c0.04-0.71,0.01-1.42,0.01-2.3c5.53,3.45,10.95,6.82,16.44,10.24c-1.26,0.79-2.43,1.52-3.6,2.25
			c-2.07,1.29-4.14,2.57-6.2,3.88c-0.34,0.22-0.59,0.24-0.96,0.02c-3.11-1.96-6.23-3.9-9.35-5.84c-0.35-0.21-0.5-0.45-0.48-0.86
			C5.73,20.41,5.71,19.65,5.71,18.74z"/>
	</g>
</g>
</svg>
